<svg id="Layer_1" data-name="Layer 1" xmlns="http://www.w3.org/2000/svg" viewBox="0 0 600 600"><defs><style>.cls-1{fill:#003f4c;}.cls-2{fill:#eb8659;}.cls-3{fill:#c7714b;}</style></defs><rect class="cls-1" y="-0.5" width="600.8" height="600.8"/><path class="cls-2" d="M453.45,217A27.82,27.82,0,0,0,398,217h-.1v55.66h0a55.66,55.66,0,0,1-54.43,55.58V148.72a43.19,43.19,0,0,0-43.19-43.19h0a43.19,43.19,0,0,0-43.19,43.19V597.41q12,1.73,24.32,2.49h62.06v-216A111.31,111.31,0,0,0,453.55,272.63V217Z"/><path class="cls-3" d="M257,599.9h43.33V105.53h-.06a43.19,43.19,0,0,0-43.19,43.19V439.21a55.65,55.65,0,0,1-54.54-55.58h0V328h-.1A27.82,27.82,0,0,0,147,328h-.1v55.66a111.31,111.31,0,0,0,110.2,111.25Z"/></svg>