<svg id="Layer_1" data-name="Layer 1" xmlns="http://www.w3.org/2000/svg" viewBox="0 0 600 600"><defs><style>.cls-1{fill:#fad96b;}.cls-2{fill:#003f4c;}.cls-3{fill:#d4b759;}</style></defs><rect class="cls-1" width="600" height="600"/><path class="cls-2" d="M199.71,421.71a6.57,6.57,0,0,0-3-2.27,10,10,0,0,0-7.71.1,9.51,9.51,0,0,0-3.17,2.26,9.74,9.74,0,0,0-2.05,3.36,11.84,11.84,0,0,0-.72,4.18,12.89,12.89,0,0,0,.7,4.35,9.8,9.8,0,0,0,2,3.38,9.1,9.1,0,0,0,3.1,2.19,10.14,10.14,0,0,0,4.06.78,9,9,0,0,0,4.14-.92,8.2,8.2,0,0,0,2.91-2.44l4.14,2.91a13.24,13.24,0,0,1-4.71,3.75,15,15,0,0,1-6.52,1.33,16.83,16.83,0,0,1-6.25-1.12,14.42,14.42,0,0,1-4.9-3.16,14.25,14.25,0,0,1-3.2-4.84,16.16,16.16,0,0,1-1.15-6.21,15.68,15.68,0,0,1,1.21-6.29,13.82,13.82,0,0,1,3.32-4.78,14.81,14.81,0,0,1,5-3,17.76,17.76,0,0,1,6.23-1.07,16.59,16.59,0,0,1,2.91.27,14.18,14.18,0,0,1,2.92.82,13.61,13.61,0,0,1,2.62,1.37,8.35,8.35,0,0,1,2.09,2Z"/><path class="cls-2" d="M217.75,414.91h4.47l12.51,29h-5.91l-2.7-6.65H213.53l-2.62,6.65h-5.78Zm6.56,18-4.47-11.81-4.55,11.81Z"/><path class="cls-2" d="M259.66,421.71a6.65,6.65,0,0,0-3-2.27,10,10,0,0,0-7.7.1,9.65,9.65,0,0,0-3.18,2.26,9.89,9.89,0,0,0-2.05,3.36,11.84,11.84,0,0,0-.72,4.18,12.89,12.89,0,0,0,.7,4.35,9.67,9.67,0,0,0,2,3.38,9,9,0,0,0,3.09,2.19,10.14,10.14,0,0,0,4.06.78,9,9,0,0,0,4.14-.92,8.11,8.11,0,0,0,2.91-2.44l4.14,2.91a13.24,13.24,0,0,1-4.71,3.75,14.94,14.94,0,0,1-6.52,1.33,16.86,16.86,0,0,1-6.25-1.12,14.52,14.52,0,0,1-4.9-3.16,14.25,14.25,0,0,1-3.2-4.84,16.16,16.16,0,0,1-1.15-6.21,15.68,15.68,0,0,1,1.21-6.29,14,14,0,0,1,3.32-4.78,14.81,14.81,0,0,1,5-3,17.81,17.81,0,0,1,6.24-1.07,16.68,16.68,0,0,1,2.91.27,14.26,14.26,0,0,1,2.91.82,13.33,13.33,0,0,1,2.62,1.37,8.35,8.35,0,0,1,2.09,2Z"/><path class="cls-2" d="M274.7,419.42h-8.89v-4.51h23v4.51h-8.9v24.52H274.7Z"/><path class="cls-2" d="M291.35,429.34a16.21,16.21,0,0,1,1.17-6.29,13.76,13.76,0,0,1,3.24-4.78,14.35,14.35,0,0,1,4.92-3,17.61,17.61,0,0,1,6.21-1.07,17.86,17.86,0,0,1,6.27,1.07,14.43,14.43,0,0,1,5,3,13.54,13.54,0,0,1,3.26,4.78,16.21,16.21,0,0,1,1.17,6.29,16,16,0,0,1-1.17,6.21,14.25,14.25,0,0,1-3.26,4.84,14.88,14.88,0,0,1-5,3.16,17,17,0,0,1-6.27,1.12,16.76,16.76,0,0,1-6.21-1.12,14.8,14.8,0,0,1-4.92-3.16,14.5,14.5,0,0,1-3.24-4.84A16,16,0,0,1,291.35,429.34Zm5.62,0a12.44,12.44,0,0,0,.71,4.28,10.19,10.19,0,0,0,2.05,3.39,9.45,9.45,0,0,0,3.16,2.23,10,10,0,0,0,4,.8,10.14,10.14,0,0,0,4.06-.8,9.43,9.43,0,0,0,3.18-2.23,10.19,10.19,0,0,0,2.05-3.39,12.44,12.44,0,0,0,.71-4.28,12.07,12.07,0,0,0-.71-4.18,10.17,10.17,0,0,0-2-3.36,9.47,9.47,0,0,0-3.16-2.26,9.94,9.94,0,0,0-4.1-.82,9.82,9.82,0,0,0-4.08.82,9.49,9.49,0,0,0-3.14,2.26,10.17,10.17,0,0,0-2,3.36A12.07,12.07,0,0,0,297,429.34Z"/><path class="cls-2" d="M326.45,414.91h5.65l5.62,21.32h.08l6.4-21.32h5.33l6.27,21.32h.08l5.74-21.32h5.5l-8.49,29h-5l-6.81-21.78h-.08l-6.81,21.78h-5Z"/><path class="cls-2" d="M372.41,414.91h19.23v4.51H377.57v7.38H390.9v4.34H377.57v8.2h14.8v4.6h-20Z"/><path class="cls-2" d="M399.26,414.91h11.32a13.67,13.67,0,0,1,3.24.39,8.37,8.37,0,0,1,2.85,1.27,6.51,6.51,0,0,1,2.8,5.64,5.91,5.91,0,0,1-1.39,4.05,7.71,7.71,0,0,1-3.65,2.3v.08a7.65,7.65,0,0,1,4.51,2.13,6.37,6.37,0,0,1,1.76,4.72,7.82,7.82,0,0,1-.94,4,7.54,7.54,0,0,1-2.48,2.6,10.37,10.37,0,0,1-3.53,1.41,18.78,18.78,0,0,1-4,.44H399.26Zm5.17,11.81H409a6.49,6.49,0,0,0,3.94-1,3.43,3.43,0,0,0,1.35-2.91,3,3,0,0,0-1.4-2.79,8.88,8.88,0,0,0-4.34-.82h-4.14Zm0,12.87h4.63a18.24,18.24,0,0,0,2.13-.14,7.08,7.08,0,0,0,2.11-.6,4.09,4.09,0,0,0,1.6-1.31,3.74,3.74,0,0,0,.64-2.3,3.36,3.36,0,0,0-1.56-3.19,9.54,9.54,0,0,0-4.71-.91h-4.84Z"/><circle class="cls-2" cx="299.48" cy="259.75" r="122.5"/><path class="cls-1" d="M350.63,215.51A11.36,11.36,0,0,0,339.32,226h0v22.68h0a22.68,22.68,0,0,1-22.18,22.65V198.13a17.6,17.6,0,0,0-17.6-17.6h0a17.6,17.6,0,0,0-17.6,17.6V381a123.07,123.07,0,0,0,35.2,0V294A45.37,45.37,0,0,0,362,248.63V226h0A11.35,11.35,0,0,0,350.63,215.51Z"/><path class="cls-3" d="M281.9,198.13V316.51a22.67,22.67,0,0,1-22.23-22.65h0V271.18h0a11.34,11.34,0,0,0-22.6,0h0v22.68A45.35,45.35,0,0,0,281.9,339.2v41.87a123.81,123.81,0,0,0,17,1.18h.63V180.53h0A17.6,17.6,0,0,0,281.9,198.13Z"/></svg>