<svg id="Layer_1" data-name="Layer 1" xmlns="http://www.w3.org/2000/svg" viewBox="0 0 830 830"><defs><style>.cls-1{opacity:0.1;}</style></defs><g class="cls-1"><path d="M365.41,249.24V567.9a61.05,61.05,0,0,1-59.83-61h0V445.87h-.11a30.52,30.52,0,0,0-60.84,0h-.1v61.06A122.1,122.1,0,0,0,365.41,629V741.66a333.65,333.65,0,0,0,45.76,3.17l1.69,0V201.86h-.07A47.38,47.38,0,0,0,365.41,249.24Z"/></g><path d="M412.47,85.83c-182.11,0-329.74,147.63-329.74,329.74,0,166,122.63,303.27,282.21,326.31v-.44h0v-112a122.11,122.11,0,0,1-120.66-122V446.35h.11a30.52,30.52,0,0,1,60.84,0h.1v61.06h0a61,61,0,0,0,59.61,60.95V249.24a47.38,47.38,0,0,1,47.38-47.38h0a47.38,47.38,0,0,1,47.38,47.38V446.13a61,61,0,0,0,59.71-61h0V324.11h.1a30.52,30.52,0,0,1,60.85,0h.1v61.06a122.09,122.09,0,0,1-120.76,122V741.42h0v.51C619.43,719,742.21,581.65,742.21,415.57,742.21,233.46,594.58,85.83,412.47,85.83Z"/></svg>