<svg id="Layer_1" data-name="Layer 1" xmlns="http://www.w3.org/2000/svg" viewBox="0 0 830 1000"><defs><style>.cls-1{fill:#fff;}.cls-2{opacity:0.1;}</style></defs><path class="cls-1" d="M143.93,850.54a17.84,17.84,0,0,0-8.05-6.12,27,27,0,0,0-20.75.28,25.77,25.77,0,0,0-8.55,6.06,26.84,26.84,0,0,0-5.52,9,32,32,0,0,0-1.94,11.26,34.85,34.85,0,0,0,1.88,11.7,26.4,26.4,0,0,0,5.35,9.1,24.09,24.09,0,0,0,8.34,5.91,27.2,27.2,0,0,0,10.92,2.1,24.09,24.09,0,0,0,11.15-2.49,21.64,21.64,0,0,0,7.83-6.56l11.15,7.83a35.75,35.75,0,0,1-12.69,10.1,40.32,40.32,0,0,1-17.55,3.59,45.43,45.43,0,0,1-16.83-3,38,38,0,0,1-21.79-21.52,43.6,43.6,0,0,1-3.09-16.72A42.43,42.43,0,0,1,87,854.13,37.8,37.8,0,0,1,96,841.27a39.67,39.67,0,0,1,13.41-8.16,47.63,47.63,0,0,1,16.77-2.87A45.18,45.18,0,0,1,134,831a39.76,39.76,0,0,1,7.84,2.2,38.54,38.54,0,0,1,7.06,3.7,22.76,22.76,0,0,1,5.63,5.3Z"/><path class="cls-1" d="M192.49,832.22h12l33.66,78.14H222.29L215,892.48H181.12l-7.06,17.88H158.5Zm17.66,48.34-12-31.78-12.25,31.78Z"/><path class="cls-1" d="M305.28,850.54a17.81,17.81,0,0,0-8.06-6.12,27,27,0,0,0-20.74.28,25.92,25.92,0,0,0-8.56,6.06,27,27,0,0,0-5.51,9,32,32,0,0,0-1.94,11.26,34.85,34.85,0,0,0,1.88,11.7,26.24,26.24,0,0,0,5.35,9.1,24.09,24.09,0,0,0,8.34,5.91,27.2,27.2,0,0,0,10.92,2.1,24.12,24.12,0,0,0,11.15-2.49,21.73,21.73,0,0,0,7.83-6.56l11.15,7.83a35.75,35.75,0,0,1-12.69,10.1,40.35,40.35,0,0,1-17.55,3.59,45.39,45.39,0,0,1-16.83-3,38.07,38.07,0,0,1-21.8-21.52,43.78,43.78,0,0,1-3.09-16.72,42.44,42.44,0,0,1,3.26-16.94,37.8,37.8,0,0,1,8.94-12.86,39.67,39.67,0,0,1,13.41-8.16,47.63,47.63,0,0,1,16.77-2.87,45.27,45.27,0,0,1,7.84.72,39.47,39.47,0,0,1,7.83,2.2,38.63,38.63,0,0,1,7.07,3.7,22.94,22.94,0,0,1,5.63,5.3Z"/><path class="cls-1" d="M345.78,844.36H321.83V832.22h61.81v12.14H359.69v66H345.78Z"/><path class="cls-1" d="M390.59,871.07a43.85,43.85,0,0,1,3.14-16.94,37.41,37.41,0,0,1,8.72-12.86,38.58,38.58,0,0,1,13.25-8.16,47.16,47.16,0,0,1,16.72-2.87,48,48,0,0,1,16.88,2.87,39,39,0,0,1,13.35,8.16,36.87,36.87,0,0,1,8.78,12.86,43.85,43.85,0,0,1,3.14,16.94,43.23,43.23,0,0,1-3.14,16.72,38.47,38.47,0,0,1-8.78,13,39.65,39.65,0,0,1-13.35,8.5,45.85,45.85,0,0,1-16.88,3,45.07,45.07,0,0,1-16.72-3,38.55,38.55,0,0,1-22-21.52A43.23,43.23,0,0,1,390.59,871.07Zm15.12,0a33.05,33.05,0,0,0,1.93,11.53,26.94,26.94,0,0,0,5.52,9.11,25.28,25.28,0,0,0,8.5,6,26.67,26.67,0,0,0,10.87,2.16,27.08,27.08,0,0,0,10.92-2.16,25.18,25.18,0,0,0,8.55-6,26.94,26.94,0,0,0,5.52-9.11,33.05,33.05,0,0,0,1.93-11.53,32,32,0,0,0-1.93-11.26,27.69,27.69,0,0,0-5.46-9,25.37,25.37,0,0,0-8.5-6.06,26.73,26.73,0,0,0-11-2.21,26.41,26.41,0,0,0-11,2.21,25.53,25.53,0,0,0-8.44,6.06,27.69,27.69,0,0,0-5.46,9A32,32,0,0,0,405.71,871.07Z"/><path class="cls-1" d="M485.06,832.22h15.23l15.12,57.39h.22l17.21-57.39h14.35l16.89,57.39h.22l15.45-57.39h14.79l-22.85,78.14H558.23l-18.32-58.6h-.22l-18.32,58.6H507.9Z"/><path class="cls-1" d="M608.77,832.22h51.76v12.14H622.68v19.87h35.86v11.7H622.68V898h39.84v12.36H608.77Z"/><path class="cls-1" d="M681.06,832.22h30.45a36.63,36.63,0,0,1,8.72,1,22.36,22.36,0,0,1,7.67,3.42,17.63,17.63,0,0,1,7.56,15.18,16,16,0,0,1-3.75,10.92,20.87,20.87,0,0,1-9.82,6.18v.23A20.49,20.49,0,0,1,734,874.93q4.74,4.76,4.74,12.69a21.08,21.08,0,0,1-2.53,10.76,20.32,20.32,0,0,1-6.68,7,28.55,28.55,0,0,1-9.49,3.81,51.39,51.39,0,0,1-10.87,1.16H681.06ZM695,864h12.36q7,0,10.6-2.76a9.27,9.27,0,0,0,3.64-7.84q0-5.29-3.75-7.5t-11.7-2.21H695Zm0,34.65h12.47a46,46,0,0,0,5.74-.39,18.3,18.3,0,0,0,5.68-1.6,11,11,0,0,0,4.31-3.53,10.15,10.15,0,0,0,1.71-6.18q0-6.18-4.2-8.61T708,875.93H695Z"/><g class="cls-2"><path class="cls-1" d="M365.41,248.24V566.9a61.05,61.05,0,0,1-59.83-61h0V444.87h-.11a30.52,30.52,0,0,0-60.84,0h-.1v61.06A122.1,122.1,0,0,0,365.41,628V740.66a333.65,333.65,0,0,0,45.76,3.17l1.69,0V200.86h-.07A47.38,47.38,0,0,0,365.41,248.24Z"/></g><path class="cls-1" d="M412.47,84.83c-182.11,0-329.74,147.63-329.74,329.74,0,166,122.63,303.27,282.21,326.31v-.44h0v-112a122.11,122.11,0,0,1-120.66-122V445.35h.11a30.52,30.52,0,0,1,60.84,0h.1v61.06h0a61,61,0,0,0,59.61,60.95V248.24a47.38,47.38,0,0,1,47.38-47.38h0a47.38,47.38,0,0,1,47.38,47.38V445.13a61,61,0,0,0,59.71-61h0V323.11h.1a30.52,30.52,0,0,1,60.85,0h.1v61.06a122.09,122.09,0,0,1-120.76,122V740.42h0v.51C619.43,718,742.21,580.65,742.21,414.57,742.21,232.46,594.58,84.83,412.47,84.83Z"/></svg>