<svg id="Layer_1" data-name="Layer 1" xmlns="http://www.w3.org/2000/svg" viewBox="0 0 830 1000"><defs><style>.cls-1,.cls-6{font-size:110.36px;font-family:AvenirNext-DemiBold, Avenir Next;font-weight:300;letter-spacing:0.03em;}.cls-1,.cls-6,.cls-8,.cls-9{fill:#fff;}.cls-2{letter-spacing:0.03em;}.cls-3{letter-spacing:0.04em;}.cls-4{letter-spacing:0.01em;}.cls-5{letter-spacing:0.05em;}.cls-6{opacity:0.18;}.cls-7{letter-spacing:0.03em;}.cls-8{opacity:0.1;}</style></defs><rect width="830" height="1000"/><text class="cls-1" transform="translate(78.93 910.36)">C<tspan class="cls-2" x="80.45" y="0">A</tspan><tspan class="cls-3" x="161.35" y="0">C</tspan><tspan class="cls-4" x="242.46" y="0">T</tspan><tspan class="cls-5" x="306.8" y="0">OWEB</tspan></text><text class="cls-6" transform="translate(78.93 993.34)">C<tspan class="cls-2" x="80.45" y="0">A</tspan><tspan class="cls-3" x="161.35" y="0">C</tspan><tspan class="cls-4" x="242.46" y="0">T</tspan><tspan class="cls-5" x="306.8" y="0">OWEB</tspan></text><text class="cls-6" transform="translate(64.15 82.78)">C<tspan class="cls-2" x="80.45" y="0">A</tspan><tspan class="cls-3" x="161.35" y="0">C</tspan><tspan class="cls-4" x="242.46" y="0">T</tspan><tspan class="cls-5" x="306.8" y="0">OWEB</tspan></text><text class="cls-6" transform="translate(78.72 763.11) rotate(-90)">C<tspan class="cls-7" x="80.45" y="0">A</tspan><tspan class="cls-3" x="161.35" y="0">C</tspan><tspan class="cls-4" x="242.46" y="0">T</tspan><tspan class="cls-5" x="306.8" y="0">OWEB</tspan></text><text class="cls-6" transform="translate(827.86 763.11) rotate(-90)">C<tspan class="cls-7" x="80.45" y="0">A</tspan><tspan class="cls-3" x="161.35" y="0">C</tspan><tspan class="cls-4" x="242.46" y="0">T</tspan><tspan class="cls-5" x="306.8" y="0">OWEB</tspan></text><path class="cls-8" d="M365.41,248.24V566.9a61.05,61.05,0,0,1-59.83-61h0V444.87h-.11a30.52,30.52,0,0,0-60.84,0h-.1v61.06A122.1,122.1,0,0,0,365.41,628V740.66a333.65,333.65,0,0,0,45.76,3.17l1.69,0V200.86h-.07A47.38,47.38,0,0,0,365.41,248.24Z"/><path class="cls-9" d="M412.47,84.83c-182.11,0-329.74,147.63-329.74,329.74,0,166,122.63,303.27,282.21,326.31v-.44h0v-112a122.11,122.11,0,0,1-120.66-122V445.35h.11a30.52,30.52,0,0,1,60.84,0h.1v61.06h0a61,61,0,0,0,59.61,60.95V248.24a47.38,47.38,0,0,1,47.38-47.38h0a47.38,47.38,0,0,1,47.38,47.38V445.13a61,61,0,0,0,59.71-61h0V323.11h.1a30.52,30.52,0,0,1,60.85,0h.1v61.06a122.09,122.09,0,0,1-120.76,122V740.42h0v.51C619.43,718,742.21,580.65,742.21,414.57,742.21,232.46,594.58,84.83,412.47,84.83Z"/></svg>